<?xml version="1.0" encoding="UTF-8"?>
<svg width="321px" height="321px" viewBox="0 0 321 321" version="1.1" xmlns="http://www.w3.org/2000/svg" xmlns:xlink="http://www.w3.org/1999/xlink">
    <title>Artboard</title>
    <g id="Artboard" stroke="none" stroke-width="1" fill="none" fill-rule="evenodd">
        <rect id="Rectangle" fill="#000000" x="0" y="0" width="321" height="321" rx="53"></rect>
        <g id="icon" transform="translate(160.500000, 166.000000) rotate(37.000000) translate(-160.500000, -166.000000) translate(114.000000, 32.000000)" fill="#FFFFFF" fill-rule="nonzero">
            <path d="M5.58677986,20.3603135 C2.50128654,20.3603135 -5.68434189e-14,17.8545256 -5.68434189e-14,14.7634796 C-5.68434189e-14,11.6724336 2.50128654,9.16664565 5.58677986,9.16664565 C8.67227318,9.16664565 11.1735597,11.6724336 11.1735597,14.7634796 C11.1735597,17.8545256 8.67227318,20.3603135 5.58677986,20.3603135 Z M43.0961293,126.216481 L42.2655232,129.039155 C42.0820223,129.666282 42.2464275,130.343843 42.6968089,130.816609 C43.1471902,131.289374 43.8151241,131.485519 44.4490063,131.331159 C45.0828884,131.176798 45.586417,130.695382 45.7699178,130.068255 L46.6005239,127.248521 C46.885002,126.279068 46.3311316,125.262141 45.3634198,124.977151 C44.3957079,124.69216 43.3806074,125.247028 43.0961293,126.216481 Z M46.8206492,120.027179 C47.7873784,120.312163 48.8020364,119.759869 49.0894072,118.792259 L49.9200133,115.969585 C50.1045627,115.342459 49.9411264,114.664337 49.4912693,114.190662 C49.0414123,113.716986 48.3734784,113.51972 47.739072,113.673171 C47.1046655,113.826623 46.600168,114.307478 46.4156186,114.934605 L45.5850125,117.754339 C45.4475702,118.219497 45.5002353,118.720303 45.7314191,119.146557 C45.9626028,119.572811 46.3533627,119.889587 46.8177142,120.027179 L46.8206492,120.027179 Z M35.0835687,237.759161 C34.64591,236.847355 33.5532809,236.463622 32.6431131,236.902068 C31.7329453,237.340514 31.3499009,238.43511 31.7875594,239.346915 L33.058416,241.996113 C33.5299279,242.842891 34.5777364,243.175939 35.4503105,242.756381 C36.3228847,242.336822 36.718947,241.309521 36.3544254,240.411299 L35.0835687,237.762101 L35.0835687,237.759161 Z M19.5779433,47.9284327 C19.8435673,48.5482239 20.4276978,48.9716338 21.0984134,49.0305531 C21.769129,49.0894725 22.4179017,48.7743675 22.787145,48.2103465 C23.1563883,47.6463254 23.1863551,46.9246522 22.8651476,46.3318575 L21.5884209,43.6856003 C21.1483309,42.7762303 20.0557016,42.3964458 19.1479652,42.8373279 C18.2402288,43.2782099 17.8611265,44.3728055 18.3012166,45.2821755 L19.5779433,47.9284327 L19.5779433,47.9284327 Z M30.5988828,8.38746993 L27.710839,8.90790051 C26.7398628,9.10856805 26.1054015,10.0478702 26.2805106,11.0254616 C26.4556197,12.0030531 27.3764993,12.6627542 28.3565399,12.5126908 L31.2475187,11.9922603 C32.2239216,11.796024 32.8640256,10.8531099 32.6873586,9.87128391 C32.5106916,8.88945796 31.5822261,8.22980459 30.5988828,8.38746993 L30.5988828,8.38746993 Z M24.4940748,195.219109 C24.7784156,195.219401 25.0588686,195.152938 25.3129408,195.025048 L27.9338993,193.701919 C28.5482994,193.389142 28.9326828,192.754565 28.9259306,192.06418 C29.9414419,193.143265 31.3766588,193.825411 32.9762359,193.825411 C36.0609188,193.825411 38.5615483,191.320282 38.5615483,188.230048 C38.5615483,186.165967 37.4315718,184.381214 35.7732946,183.410919 C35.488342,182.967427 35.0240477,182.670947 34.5024379,182.5994 C34.2240211,182.570692 33.9427495,182.606921 33.6806369,182.705251 C33.4458366,182.675848 33.2169063,182.631744 32.9762359,182.631744 C31.1022441,182.630148 29.3523459,183.570152 28.3166604,185.134757 C27.2809748,186.699363 27.0975488,188.680023 27.8282392,190.408799 C27.3394859,190.187918 26.7779343,190.196539 26.2961671,190.432322 L23.6722737,191.74957 C22.913883,192.130222 22.5163921,192.983411 22.7122344,193.810231 C22.9080767,194.637052 23.6458229,195.220377 24.4940748,195.219109 L24.4940748,195.219109 Z M71.1430262,42.9181857 C70.2086314,43.2974637 69.7569825,44.3628531 70.1333849,45.2998172 L71.2369463,48.0254621 C71.6260344,48.9465637 72.6807051,49.3847291 73.6062939,49.0098132 C74.5318828,48.6348973 74.9861757,47.5855161 74.6268758,46.6523486 L73.5233143,43.9267038 C73.3415734,43.4764204 72.9885037,43.1170545 72.5419713,42.9278606 C72.0954389,42.7386667 71.5921234,42.7351859 71.1430262,42.9181857 Z M21.1687154,11.9452157 C21.0837094,11.4670608 20.8120498,11.0425355 20.4138227,10.7655372 C20.0155956,10.488539 19.5236184,10.3818947 19.0467076,10.4691922 L16.1557288,10.9896228 C15.1847526,11.1902904 14.5502913,12.1295925 14.7254004,13.1071839 C14.9005095,14.0847754 15.821389,14.7444765 16.8014296,14.5944131 L19.6924084,14.0739826 C20.1701026,13.9880833 20.5941117,13.7154556 20.8710236,13.3161612 C21.1479356,12.9168669 21.2550308,12.4236666 21.1687154,11.9452157 L21.1687154,11.9452157 Z M78.9589415,67.0961554 L80.065438,69.8188601 C80.4840545,70.6932061 81.5095617,71.0902302 82.4063079,70.7251254 C83.3030542,70.3600207 83.7613488,69.3588759 83.4524324,68.439866 L82.348871,65.7171614 C82.10298,65.1110443 81.5529885,64.6823863 80.9060731,64.5926589 C80.2591577,64.5029314 79.6136001,64.7657662 79.2125758,65.2821559 C78.8115514,65.7985456 78.7159854,66.4900383 78.9618765,67.0961554 L78.9589415,67.0961554 Z M72.0323324,91.1153497 L69.5874742,92.7383875 C69.0432633,93.0992215 68.7325485,93.7235014 68.7723731,94.376067 C68.8121977,95.0286326 69.1965114,95.6103437 69.7805469,95.9020753 C70.3645825,96.1938069 71.0596109,96.1512381 71.6038218,95.7904041 L74.051615,94.1673663 C74.8928922,93.6087533 75.1228502,92.4726908 74.5652407,91.6298997 C74.0076312,90.7871086 72.8736095,90.5567367 72.0323324,91.1153497 L72.0323324,91.1153497 Z M65.7983842,24.8530701 L64.6948227,22.1274252 C64.2936629,21.2253375 63.2509038,20.8042088 62.3373836,21.1753499 C61.4238634,21.546491 60.9684632,22.5762855 61.3078283,23.503479 L62.4084547,26.2261836 C62.6460757,26.8433286 63.1973587,27.2842003 63.8507315,27.3796002 C64.5041044,27.4750002 65.1580671,27.2101082 65.5616409,26.686585 C65.9652147,26.1630618 66.0557053,25.4622354 65.7983842,24.8530701 L65.7983842,24.8530701 Z M29.3808562,64.0059151 C28.943598,64.2166282 28.6080628,64.5930588 28.4483601,65.052065 C28.2886573,65.5110711 28.3179273,66.0148862 28.5297051,66.4522329 L29.8093668,69.09849 C30.0935308,69.6872746 30.6696577,70.0794613 31.3207261,70.1273174 C31.9717945,70.1751735 32.5988916,69.8714284 32.9657959,69.3304999 C33.3327002,68.7895715 33.3836702,68.0936396 33.0995061,67.5048552 L31.8227794,64.858598 C31.6130479,64.4199946 31.237322,64.0833337 30.7789124,63.923264 C30.3205028,63.7631943 29.8172913,63.7929434 29.3808562,64.0059151 Z M79.0411216,57.5461073 L77.9346252,54.8204625 C77.5537001,53.8834866 76.4866947,53.4332741 75.551402,53.8148847 C74.6161093,54.1964953 74.1667056,55.2654209 74.5476307,56.2023968 L75.6511921,58.9251014 C76.0675164,59.8045853 77.0969519,60.2053048 77.9968002,59.8381559 C78.8966486,59.471007 79.35369,58.4637872 79.0381866,57.5431671 L79.0411216,57.5461073 Z M70.21263,35.7497691 L69.1090685,33.0241242 C68.8637018,32.4174818 68.3139151,31.9880583 67.6668078,31.8976134 C67.0197005,31.8071685 66.3735835,32.0694428 65.971843,32.5856403 C65.5701024,33.1018377 65.4737723,33.7935356 65.7191391,34.4001779 L66.8227005,37.1258228 C67.2020047,38.0636106 68.268353,38.5157976 69.2044561,38.1358109 C70.1405593,37.7558242 70.5919341,36.6875569 70.21263,35.7497691 Z M40.583766,253.454406 C41.4937068,253.016568 41.8773309,251.922851 41.4407871,251.011029 L40.1699304,248.358891 C39.7322717,247.447086 38.6396426,247.063352 37.7294748,247.501798 C36.819307,247.940244 36.4362626,249.03484 36.8739211,249.946646 L38.1447777,252.592903 C38.5819127,253.504295 39.6727,253.889585 40.583766,253.454406 L40.583766,253.454406 Z M62.2440945,97.6192618 L59.8021713,99.2393592 C58.9600837,99.7979722 58.7294686,100.934693 59.2870781,101.778296 C59.8446876,102.621899 60.9793663,102.852929 61.8214539,102.294316 L64.2663122,100.668338 C65.0696316,100.095389 65.2747395,98.9875032 64.7299385,98.1640714 C64.1851375,97.3406395 63.0867003,97.0983153 62.2470295,97.6163215 L62.2440945,97.6192618 Z M60.377432,16.3380026 C61.3106771,15.9575698 61.7608693,14.8925205 61.3841384,13.9563711 L60.2805769,11.227786 C60.0909327,10.7645576 59.7194582,10.3998575 59.2533255,10.219268 C60.6914774,9.20486937 61.6336137,7.54066763 61.6336137,5.64712361 C61.6685783,2.69684091 59.4051013,0.22906959 56.4676783,0.0149269462 C53.5302552,-0.199215698 50.9339962,1.91427342 50.5422341,4.83854503 C49.6804069,5.10678071 49.1495262,5.97229474 49.300054,6.86371603 C49.4505819,7.75513732 50.2360971,8.39756029 51.1380399,8.36688793 L51.1908699,8.36100736 C52.1447462,10.0722537 53.9497736,11.2424874 56.0483013,11.2424874 C56.3535417,11.2424874 56.6470421,11.2013234 56.9376075,11.1542788 C56.7220504,11.6102353 56.7060945,12.1355981 56.8935824,12.6038397 L57.9971439,15.3294846 C58.376893,16.2660211 59.4421441,16.7173635 60.377432,16.3380026 L60.377432,16.3380026 Z M14.4651666,37.3404637 C14.9044461,38.2506456 15.9970754,38.6317465 16.9056223,38.1916764 C17.8141692,37.7516063 18.1945855,36.6570107 17.7553059,35.7468288 L16.4785792,33.1005716 C16.0401101,32.1895778 14.9474809,31.8071604 14.0381235,32.2464186 C13.1287661,32.6856768 12.7470358,33.7802724 13.1855049,34.6912662 L14.4651666,37.3375234 L14.4651666,37.3404637 Z M41.6843924,91.3064683 C42.3140094,91.3059759 42.8990852,90.9810088 43.2330496,90.4463015 C43.567014,89.9115943 43.6028838,89.2423714 43.3279946,88.6749125 L42.0512679,86.0286554 C41.6111778,85.1184735 40.5178916,84.7380307 39.6093447,85.1789128 C38.7007978,85.6197949 38.3210385,86.7150486 38.7611286,87.6252305 L40.0378552,90.2714877 C40.3548357,90.9242311 41.0064065,91.3064683 41.6843924,91.3064683 L41.6843924,91.3064683 Z M10.995992,27.7874762 C11.6254314,27.7881094 12.2107986,27.4638573 12.5449371,26.929469 C12.8790757,26.3950807 12.9148478,25.7259437 12.6395941,25.1588598 L11.3628675,22.5126027 C10.9235879,21.6024207 9.83095864,21.2213198 8.92241175,21.6613899 C8.01386486,22.1014601 7.63344855,23.1960556 8.07272813,24.1062375 L9.34945482,26.7524947 C9.66643523,27.4081784 10.3180061,27.7874762 10.995992,27.7874762 L10.995992,27.7874762 Z M46.8030391,101.891498 C47.4324785,101.892131 48.0178458,101.567879 48.3519843,101.033491 C48.6861228,100.499102 48.721895,99.8299654 48.4466413,99.2628815 L47.1669796,96.6166244 C46.8828156,96.0273146 46.3064089,95.6346425 45.6548865,95.5865238 C45.0033641,95.5384051 44.3757076,95.8421502 44.0083493,96.3833413 C43.6409909,96.9245323 43.5897412,97.6209495 43.8739053,98.2102592 L45.153567,100.856516 C45.4676124,101.5122 46.1221183,101.891498 46.8001041,101.891498 L46.8030391,101.891498 Z M37.7867073,8.94612422 C37.9653207,9.94136165 38.915146,10.6033561 39.9087151,10.425088 L42.7967589,9.90465738 C43.7677351,9.70398984 44.4021964,8.76468771 44.2270872,7.78709627 C44.0519781,6.80950483 43.1310986,6.14980364 42.151058,6.29986705 L39.2600792,6.82029763 C38.2678225,7.00063938 37.6086392,7.95172941 37.7867073,8.94612422 L37.7867073,8.94612422 Z M19.8391586,205.95409 C19.4015,205.042284 18.3088708,204.658551 17.398703,205.096997 C16.4885352,205.535443 16.1054908,206.630039 16.5431493,207.541844 L17.814006,210.188102 C18.2875985,211.029321 19.3310732,211.358712 20.200504,210.941441 C21.0699348,210.52417 21.4676104,209.503119 21.1100153,208.606228 L19.8391586,205.95409 L19.8391586,205.95409 Z M24.9196503,216.556761 C24.4819917,215.644955 23.3893625,215.261221 22.4791946,215.699667 C21.5690268,216.138114 21.1859824,217.232709 21.623641,218.144515 L22.8944977,220.790772 C23.3680902,221.631992 24.4115649,221.961382 25.2809957,221.544111 C26.1504265,221.12684 26.5481021,220.105789 26.190507,219.208898 L24.9196503,216.556761 L24.9196503,216.556761 Z M40.2286305,152.576143 L40.4223407,151.094239 C43.0142137,150.555225 44.8729966,148.26838 44.8747416,145.616486 C44.8747416,143.737644 43.9443454,142.088143 42.5267385,141.073745 L43.2751645,138.536278 C43.4597139,137.909152 43.2962776,137.23103 42.8464206,136.757355 C42.3965635,136.28368 41.7286296,136.086413 41.0942232,136.239865 C40.4598168,136.393316 39.9553192,136.874171 39.7707699,137.501298 L39.0223439,140.044645 C36.0476783,140.179738 33.7043991,142.633409 33.7011819,145.616486 C33.7011819,147.804059 34.9691036,149.679961 36.797611,150.600271 L36.6039007,152.102757 C36.5095239,153.086364 37.2109001,153.967685 38.1890907,154.094642 C39.1672812,154.221599 40.0696871,153.54843 40.2286305,152.573202 L40.2286305,152.576143 Z M35.1598788,177.480355 C35.6409585,177.542874 36.1271168,177.411308 36.5113396,177.114626 C36.8955623,176.817945 37.1463547,176.380466 37.2085115,175.898489 L37.587127,172.987606 C37.6815039,172.003999 36.9801276,171.122678 36.0019371,170.995721 C35.0237465,170.868764 34.1213406,171.541934 33.9623972,172.517161 L33.5808467,175.430984 C33.5184482,175.912929 33.6497775,176.399963 33.9459263,176.784877 C34.2420751,177.169791 34.6787679,177.421035 35.1598788,177.483303 L35.1598788,177.480355 Z M23.4139933,55.8701445 L24.69072,58.5164016 C24.9649204,59.1227496 25.5458847,59.532355 26.2081741,59.5862735 C26.8704634,59.6401919 27.5098229,59.3299359 27.8781539,58.775898 C28.2464848,58.22186 28.2858061,57.5112544 27.9808594,56.9198265 L26.7041327,54.2735693 C26.2640426,53.3633874 25.1707563,52.9829447 24.2622095,53.4238267 C23.3536626,53.8647088 22.9739033,54.9599625 23.4139933,55.8701445 L23.4139933,55.8701445 Z M36.5686807,80.7214396 C37.1982977,80.7209472 37.7833734,80.3959801 38.1173379,79.8612728 C38.4513023,79.3265656 38.4871721,78.6573427 38.2122828,78.0898839 L36.9326211,75.4436267 C36.4702208,74.574391 35.4044648,74.227076 34.5200728,74.6574109 C33.6356808,75.0877458 33.2492969,76.1416552 33.6454168,77.0431421 L34.9221435,79.6893993 C35.2361889,80.3421427 35.8906948,80.7214396 36.5657457,80.7214396 L36.5686807,80.7214396 Z M30.006012,227.156491 C29.7228965,226.566656 29.1471791,226.172938 28.495727,226.123647 C27.8442748,226.074356 27.216059,226.37698 26.8477223,226.917524 C26.4793856,227.458068 26.4268872,228.15441 26.7100027,228.744245 L27.9808594,231.390502 C28.4523712,232.23728 29.5001797,232.570328 30.3727539,232.15077 C31.245328,231.731212 31.6413903,230.70391 31.2768687,229.805688 L30.006012,227.156491 L30.006012,227.156491 Z M39.101589,161.320553 C39.2312656,160.316998 38.5243089,159.398143 37.5225569,159.268233 C36.520805,159.138323 35.6036009,159.846552 35.4739242,160.850107 L35.0953087,163.76393 C34.9656321,164.767485 35.6725888,165.686339 36.6743408,165.816249 C37.6760928,165.946159 38.5932969,165.23793 38.7229735,164.234376 L39.101589,161.320553 L39.101589,161.320553 Z M50.460054,102.044392 C47.3745606,102.044392 44.8732741,104.55018 44.8732741,107.641226 C44.8732741,110.732272 47.3745606,113.23806 50.460054,113.23806 C53.5447367,113.23806 56.045366,110.73293 56.045366,107.642696 C56.045366,104.552462 53.5447367,102.047332 50.460054,102.047332 L50.460054,102.044392 Z M87.4117526,77.5018267 C87.3178325,77.5018267 87.2268474,77.525349 87.1299923,77.5312296 L86.7631168,76.619741 C86.5177501,76.0130986 85.9679634,75.5836751 85.320856,75.4932302 C84.6737487,75.4027852 84.0276318,75.6650596 83.6258913,76.1812571 C83.2241507,76.6974545 83.1278205,77.3891524 83.3731873,77.9957947 L83.7429978,78.9072833 C82.5288908,79.9601768 81.8298092,81.4884831 81.8264403,83.0971905 C81.8264403,83.5940988 81.9144904,84.0674848 82.0348256,84.5261694 C81.9614505,84.5614528 81.8851404,84.5702736 81.8147003,84.6143779 L79.369842,86.2432962 C78.5665226,86.8162453 78.3614147,87.9241311 78.9062157,88.747563 C79.4510167,89.5709949 80.5494539,89.813319 81.3891247,89.2953128 L83.8369179,87.6693348 C83.904423,87.6222903 83.9425781,87.5517234 84.0042132,87.5017385 C84.9492844,88.23681 86.1232859,88.6925543 87.4146876,88.6925543 C90.4993705,88.6925543 93,86.1874246 93,83.0971905 C93,80.0069564 90.4993705,77.5018267 87.4146876,77.5018267 L87.4117526,77.5018267 Z M19.8450286,198.535749 C19.8450286,196.536718 18.7804743,194.689537 17.0523726,193.690022 C15.3242709,192.690506 13.1951617,192.690506 11.46706,193.690022 C9.7389583,194.689537 8.67440393,196.536718 8.67440393,198.535749 C8.67440393,201.625983 11.1750336,204.131113 14.2597163,204.131113 C17.344399,204.131113 19.8450286,201.625983 19.8450286,198.535749 L19.8450286,198.535749 Z M45.0508418,256.809272 C41.966159,256.809272 39.4655295,259.314402 39.4655295,262.404636 C39.4655295,265.49487 41.966159,268 45.0508418,268 C48.1355247,268 50.6361542,265.49487 50.6361542,262.404636 C50.6361542,259.314402 48.1355247,256.809272 45.0508418,256.809272 L45.0508418,256.809272 Z" id="Shape"></path>
        </g>
    </g>
</svg>