<svg xmlns="http://www.w3.org/2000/svg" viewBox="0 0 100 125" style="enable-background:new 0 0 100 100" xml:space="preserve"><path fill="white" d="M21.643 22.16a2.272 2.272 0 0 1-2.27-2.269c0-1.25 1.018-2.269 2.27-2.269s2.27 1.018 2.27 2.27a2.272 2.272 0 0 1-2.27 2.269zm6.474 29.106c.929 0 1.727-.563 2.078-1.364l.003.001.991.133a.623.623 0 1 0 .165-1.234l-.99-.133h-.01a2.266 2.266 0 0 0-2.237-1.942c-.01 0-.018.003-.027.003a.61.61 0 0 0-.503-.115.613.613 0 0 0-.409.321 2.268 2.268 0 0 0-1.33 2.06 2.272 2.272 0 0 0 2.269 2.27zm22.842 3.054a2.272 2.272 0 0 0 2.269-2.269 2.272 2.272 0 0 0-2.269-2.27 2.272 2.272 0 0 0-2.27 2.27 2.272 2.272 0 0 0 2.27 2.27zm2.174 25.789a2.272 2.272 0 0 0 2.269 2.269 2.272 2.272 0 0 0 2.27-2.27c0-.08-.016-.158-.025-.237a.621.621 0 0 0 .553.116l.964-.265a.623.623 0 0 0-.33-1.201l-.964.265a.61.61 0 0 0-.408.384 2.268 2.268 0 0 0-2.06-1.33 2.272 2.272 0 0 0-2.27 2.269zm25.224-8.569c-1.251 0-2.27 1.018-2.27 2.27s1.019 2.27 2.27 2.27 2.27-1.019 2.27-2.27-1.018-2.27-2.27-2.27zM23.336 24.637l-.217-.976a.623.623 0 0 0-1.216.27l.217.976a.623.623 0 0 0 1.216-.27zm.869 3.904-.218-.976a.623.623 0 0 0-1.216.27l.218.977a.623.623 0 0 0 1.216-.271zm.868 3.905-.217-.976a.623.623 0 1 0-1.216.27l.217.976a.623.623 0 0 0 1.216-.27zm1.264 8.552a.623.623 0 0 0 .473-.743l-.217-.976a.623.623 0 0 0-1.216.27l.217.976a.623.623 0 0 0 .743.473zm-.395-4.648-.217-.976a.623.623 0 0 0-1.216.27l.217.977a.623.623 0 0 0 1.216-.27zM52.23 60.712a.623.623 0 0 0 .616-.72l-.157-.989a.623.623 0 0 0-1.23.195l.157.989a.623.623 0 0 0 .614.525zm-10.139-9.218.991.132a.623.623 0 0 0 .165-1.234l-.99-.133a.622.622 0 1 0-.165 1.234zm19.8 27.457c.054 0 .11-.008.165-.023l.964-.264a.623.623 0 0 0-.33-1.202l-.964.265a.623.623 0 0 0 .165 1.224zm-27.73-28.518.992.133a.623.623 0 0 0 .165-1.234l-.991-.133a.622.622 0 1 0-.165 1.234zm3.965.53.992.133a.623.623 0 0 0 .165-1.234l-.992-.133a.622.622 0 1 0-.165 1.234zm-11.881-7.51.217.977a.623.623 0 0 0 1.216-.27l-.218-.977a.623.623 0 1 0-1.216.27zm19.811 8.57.991.133a.623.623 0 1 0 .165-1.234l-.99-.132a.623.623 0 1 0-.166 1.234zm28.207 22.264-.965.265a.623.623 0 0 0 .33 1.2l.965-.264a.623.623 0 0 0-.33-1.2zm-4.658 2.547c.055 0 .11-.007.166-.022l.964-.265a.623.623 0 0 0-.33-1.201l-.964.264a.623.623 0 0 0 .164 1.224zm-16.27-5.784.157.988a.623.623 0 0 0 1.23-.194l-.156-.988a.623.623 0 0 0-1.23.194zm-.625-3.95.157.987a.623.623 0 0 0 1.23-.194l-.156-.988a.623.623 0 0 0-1.23.194zM53.962 75l.157.988a.623.623 0 0 0 1.23-.195l-.156-.987a.63.63 0 0 0-.713-.518.623.623 0 0 0-.518.712zm-1.359-12.564a.623.623 0 0 0-.518.712l.157.988a.623.623 0 0 0 1.23-.195l-.156-.988a.628.628 0 0 0-.713-.517zm-.9-5.684a.623.623 0 0 0 .518-.712l-.156-.988a.623.623 0 0 0-1.23.194l.156.988a.623.623 0 0 0 .712.518zM67.314 76.84a.623.623 0 0 0-.765-.436l-.965.265a.623.623 0 0 0 .33 1.201l.965-.265a.623.623 0 0 0 .435-.765z"/></svg>