<svg xmlns="http://www.w3.org/2000/svg" viewBox="0 0 100 125" style="enable-background:new 0 0 100 100" xml:space="preserve"><path fill="white" d="M97.153 76.718a2.272 2.272 0 0 1-2.269 2.27 2.272 2.272 0 0 1-2.27-2.27 2.272 2.272 0 0 1 2.27-2.27 2.272 2.272 0 0 1 2.27 2.27zM29.19 71.033a2.272 2.272 0 0 0 2.27 2.27c.452 0 .871-.137 1.225-.365l.609.534a.62.62 0 0 0 .879-.058.623.623 0 0 0-.058-.879l-.61-.535c.14-.294.224-.62.224-.967 0-.817-.438-1.529-1.088-1.929 0-.27-.165-.52-.437-.6a.617.617 0 0 0-.69.265c-.019 0-.036-.005-.054-.005a2.272 2.272 0 0 0-2.27 2.27zm9.52-20.631a2.272 2.272 0 0 0-2.269-2.27 2.272 2.272 0 0 0-2.269 2.27 2.272 2.272 0 0 0 2.27 2.27 2.272 2.272 0 0 0 2.269-2.27zm10.825-19.349a.622.622 0 0 0-1.119-.253 2.268 2.268 0 0 0-2.186 2.261c0 1.034.7 1.9 1.647 2.172v.883a.623.623 0 0 0 1.245 0v-.883a2.266 2.266 0 0 0 1.647-2.172c0-.876-.505-1.63-1.234-2.008zm-3.508-10.566a.615.615 0 0 0 .123.49l.626.78a.622.622 0 0 0 .875.096.623.623 0 0 0 .097-.875l-.626-.78a.614.614 0 0 0-.45-.228c.343-.397.558-.908.558-1.473a2.272 2.272 0 0 0-2.27-2.27 2.272 2.272 0 0 0-2.269 2.27 2.272 2.272 0 0 0 2.27 2.269c.387 0 .747-.107 1.066-.28zM5.116 48.022c1.251 0 2.27-1.018 2.27-2.27s-1.019-2.27-2.27-2.27c-1.251 0-2.27 1.019-2.27 2.27s1.019 2.27 2.27 2.27zm34.006 32.007c1.252 0 2.27-1.018 2.27-2.27s-1.018-2.27-2.27-2.27c-1.25 0-2.269 1.019-2.269 2.27s1.018 2.27 2.27 2.27zM36.19 62.674a2.272 2.272 0 0 0-2.27-2.269 2.272 2.272 0 0 0-2.269 2.27c0 .89.52 1.653 1.267 2.025a.61.61 0 0 0-.357.388l-.283.96a.622.622 0 1 0 1.195.352l.282-.96a.611.611 0 0 0-.09-.522c.085.01.168.026.255.026a2.272 2.272 0 0 0 2.27-2.27zM48.5 42.161c1.251 0 2.269-1.018 2.269-2.27s-1.018-2.27-2.27-2.27-2.269 1.019-2.269 2.27 1.018 2.27 2.27 2.27zm4.038-17.042a2.272 2.272 0 0 0-2.269-2.27 2.24 2.24 0 0 0-1.02.253.614.614 0 0 0-.5.12.613.613 0 0 0-.226.465A2.247 2.247 0 0 0 48 25.119c0 .86.486 1.6 1.193 1.985-.002.007-.007.012-.008.019l-.218.976a.623.623 0 0 0 1.216.271l.217-.976c.002-.007 0-.013 0-.02a2.266 2.266 0 0 0 2.138-2.255zm-14.327-3.502c-1.252 0-2.27 1.018-2.27 2.27s1.018 2.27 2.27 2.27 2.27-1.019 2.27-2.27-1.019-2.27-2.27-2.27zM14.947 48.97a.607.607 0 0 0-.312-.204.602.602 0 0 0-.395.042c-.06-.004-.117-.017-.178-.017a2.272 2.272 0 0 0-2.27 2.269c0 .099.017.193.03.29-.028.007-.056.005-.083.016l-.921.39a.612.612 0 0 0-.305.295 2.266 2.266 0 0 0-4.128 1.297c0 1.251 1.018 2.27 2.27 2.27a2.272 2.272 0 0 0 2.224-2.72c.061.02.117.055.183.055.08 0 .163-.016.242-.05l.921-.39c.027-.012.045-.033.07-.048.415.523 1.049.864 1.767.864a2.272 2.272 0 0 0 2.27-2.27c0-.937-.572-1.743-1.385-2.089zm74.909 28.062.998.061.039.001a.623.623 0 0 0 .037-1.244l-.998-.061c-.341-.033-.639.24-.66.583s.24.639.584.66zM6.944 48.2a.623.623 0 0 0-1.13.526l.423.906a.623.623 0 1 0 1.13-.526l-.423-.906zm51.6 33.41.91.152a2.265 2.265 0 0 0 2.243 2.01 2.272 2.272 0 0 0 2.27-2.27c0-.009-.003-.017-.003-.026a.615.615 0 0 0 .183-.604.617.617 0 0 0-.463-.444 2.262 2.262 0 0 0-1.987-1.195c-.902 0-1.677.534-2.043 1.3l-.905-.15a.623.623 0 1 0-.204 1.229zM21 39.158a.623.623 0 0 0-.88-.03l-.732.683a.623.623 0 0 0 .85.91l.732-.683a.623.623 0 0 0 .03-.88zm50.137 39.275-.969.25a.623.623 0 1 0 .311 1.205l.969-.25a.623.623 0 1 0-.31-1.205zm8.506-1.546a.62.62 0 0 0-.758-.448l-.969.25a.622.622 0 1 0 .31 1.206l.97-.25a.622.622 0 0 0 .447-.758zm-27.288 3.068a.622.622 0 0 0-.512-.716l-.987-.164a.622.622 0 1 0-.204 1.229l.987.163a.623.623 0 0 0 .716-.512zm34.583-4.352-.998-.062a.596.596 0 0 0-.558.29 2.265 2.265 0 0 0-2.254-2.11 2.272 2.272 0 0 0-2.27 2.27 2.272 2.272 0 0 0 2.27 2.27 2.272 2.272 0 0 0 2.225-1.825c.096.192.28.334.51.348l.998.062.039.001a.623.623 0 0 0 .038-1.244zm-18.917 4.274a.62.62 0 0 0-.758-.447l-.968.249a.622.622 0 1 0 .31 1.206l.969-.25a.622.622 0 0 0 .447-.758zM28.584 32.697a.62.62 0 0 0 .425-.167l.731-.683a.623.623 0 0 0-.85-.91l-.731.683a.623.623 0 0 0 .425 1.077zm19.312 45.886-.986-.163a.622.622 0 1 0-.204 1.229l.986.163a.623.623 0 0 0 .204-1.229zM36.3 76.11a.62.62 0 0 0 .879-.057.623.623 0 0 0-.058-.88l-.751-.659a.622.622 0 1 0-.822.937l.752.66zm39.469 1.773a.62.62 0 0 0-.758-.448l-.969.25a.623.623 0 1 0 .311 1.206l.968-.25a.623.623 0 0 0 .448-.758zm-19.98 2.01-.987-.164a.622.622 0 1 0-.204 1.229l.987.163a.623.623 0 0 0 .204-1.229zM45.315 43.29c.145 0 .291-.05.41-.153l.753-.657a.623.623 0 0 0-.818-.94l-.754.657a.623.623 0 0 0 .41 1.093zm-27.24-1.403a.623.623 0 0 0-.88-.03l-.2.188a2.245 2.245 0 0 0-1.163-.332 2.265 2.265 0 0 0-2.244 2.01l-.672.11a.622.622 0 1 0 .203 1.229l.668-.11c.198.415.518.757.914.987l-.093.369a.622.622 0 1 0 1.208.301l.092-.364a2.268 2.268 0 0 0 2.193-2.262 2.24 2.24 0 0 0-.257-1.027l.202-.189a.623.623 0 0 0 .03-.88zM42.3 45.918a.62.62 0 0 0 .408-.153l.754-.658a.622.622 0 1 0-.818-.938l-.754.657a.622.622 0 0 0 .41 1.092zm-19.258-9.521-.73.683a.623.623 0 0 0 .85.91l.731-.683a.623.623 0 0 0-.85-.91zm2.924-2.73-.73.683a.623.623 0 0 0 .85.91l.73-.683a.623.623 0 0 0-.85-.91zM9.07 45.722a.604.604 0 0 0 .102-.009l.987-.162a.622.622 0 1 0-.202-1.229l-.987.163a.622.622 0 0 0 .1 1.237zM34.43 27.237a.62.62 0 0 0 .425-.167l.73-.682a.622.622 0 1 0-.849-.91l-.73.682a.622.622 0 0 0 .424 1.077zm7.512-6.602a.624.624 0 0 0-.868-.149l-.816.578a.623.623 0 0 0 .72 1.017l.816-.578c.28-.2.347-.588.148-.868zM31.933 29.8l.73-.682a.622.622 0 1 0-.849-.91l-.731.682a.622.622 0 1 0 .85.91zm2.853 29.285c.29 0 .549-.203.61-.497l.2-.98a.622.622 0 1 0-1.219-.25l-.201.979a.622.622 0 0 0 .61.748zm4.089-11.63a.622.622 0 1 0 .818.938l.754-.657a.622.622 0 1 0-.818-.939l-.754.658zm-2.474 6.235a.622.622 0 1 0-1.22-.251l-.2.98a.622.622 0 1 0 1.22.25l.2-.98zm7.55 24.239-.987-.164a.623.623 0 0 0-.204 1.229l.987.163a.623.623 0 0 0 .204-1.229z"/></svg>