<svg xmlns="http://www.w3.org/2000/svg" viewBox="0 0 100 125" style="enable-background:new 0 0 100 100" xml:space="preserve"><path fill="white" d="M25.164 3.019c1.045 0 1.92.714 2.181 1.678.269.07.47.302.47.592s-.201.522-.47.591a2.266 2.266 0 0 1-2.18 1.678c-.011 0-.02-.003-.031-.003l-.228.758a.624.624 0 0 1-1.193-.358l.228-.76a2.265 2.265 0 0 1 1.223-4.176zm-4.58 19.313a.613.613 0 0 0-.408-.428.615.615 0 0 0-.577.132c-.047-.003-.092-.015-.14-.015-1.251 0-2.27 1.019-2.27 2.27s1.019 2.27 2.27 2.27c.184 0 .361-.029.533-.07l.472.83a.622.622 0 1 0 1.083-.616l-.47-.827c.402-.41.652-.97.652-1.587 0-.84-.464-1.566-1.144-1.959zm1.523-1.58c0 1.251 1.018 2.27 2.27 2.27s2.269-1.019 2.269-2.27c0-1.251-1.018-2.27-2.27-2.27s-2.27 1.019-2.27 2.27zm13.478 23.832a2.272 2.272 0 0 0-2.27-2.27 2.24 2.24 0 0 0-1.039.265.614.614 0 0 0-.128-.234l-.666-.746a.624.624 0 0 0-.929.83l.667.746c.06.067.132.117.209.151-.241.36-.383.793-.383 1.258 0 1.252 1.018 2.27 2.27 2.27s2.269-1.018 2.269-2.27zm46.579-5.368a2.272 2.272 0 0 0-2.27-2.27c-.069 0-.134.015-.202.02a.613.613 0 0 0-.72-.237.614.614 0 0 0-.392.643 2.264 2.264 0 0 0-.955 1.844 2.27 2.27 0 0 0 1.868 2.228l.08.79a.623.623 0 1 0 1.239-.126l-.08-.788a2.27 2.27 0 0 0 1.432-2.104zm-1.536 9.575a.613.613 0 0 0-.44-.282.62.62 0 0 0-.492.17 2.265 2.265 0 0 0-2.071 2.25c0 .842.467 1.57 1.152 1.962-.002.005-.005.008-.006.013l-.238.971a.623.623 0 1 0 1.21.296l.237-.971v-.012a2.268 2.268 0 0 0 2.184-2.26c0-.993-.646-1.83-1.536-2.137zm-34.673-14.24a2.272 2.272 0 0 0-2.27 2.269c0 .211.039.412.093.606l-.564.346a.623.623 0 0 0 .652 1.062l.563-.346c.404.37.937.601 1.526.601.3 0 .583-.061.845-.167a.62.62 0 0 0 .978-.763c.277-.376.447-.837.447-1.34a2.272 2.272 0 0 0-2.27-2.269zm34.586 8.8a2.272 2.272 0 0 0-2.27 2.269c0 1.251 1.019 2.27 2.27 2.27s2.27-1.019 2.27-2.27a2.272 2.272 0 0 0-2.27-2.27zm-2.416 12.552a2.272 2.272 0 0 0-2.27 2.27c0 .496.164.951.435 1.325a.611.611 0 0 0-.535.164l-.074.074a2.24 2.24 0 0 0-1.095-.294c-1.252 0-2.27 1.018-2.27 2.27s1.018 2.269 2.27 2.269a2.272 2.272 0 0 0 2.269-2.27c0-.398-.112-.768-.294-1.094l.075-.075a.612.612 0 0 0 .164-.535c.373.27.829.435 1.325.435a2.272 2.272 0 0 0 2.269-2.27 2.272 2.272 0 0 0-2.27-2.269zm-31.36 13.311a1.857 1.857 0 0 0-1.855 1.855c0 1.023.832 1.855 1.855 1.855a1.857 1.857 0 0 0 1.855-1.855 1.857 1.857 0 0 0-1.855-1.855zm14.466 19.69a2.272 2.272 0 0 0-2.27 2.268c0 .078.016.152.023.228a.611.611 0 0 0-.672-.433l-.99.144a.622.622 0 1 0 .18 1.232l.99-.144a.614.614 0 0 0 .518-.563 2.273 2.273 0 0 0 2.221 1.806 2.272 2.272 0 0 0 2.269-2.27 2.272 2.272 0 0 0-2.269-2.269zm-3.05-14.296a2.272 2.272 0 0 0-2.27-2.27c-.42 0-.809.123-1.146.322a.613.613 0 0 0-.1-.574l-.632-.775a.624.624 0 0 0-.967.786l.631.776c.123.15.303.23.484.23.018 0 .034-.008.052-.01-.364.403-.592.93-.592 1.515 0 1.251 1.018 2.27 2.27 2.27s2.27-1.019 2.27-2.27zM75.018 28.33a2.272 2.272 0 0 0 2.27-2.27 2.272 2.272 0 0 0-2.27-2.269 2.272 2.272 0 0 0-2.27 2.27 2.272 2.272 0 0 0 2.27 2.269zM39.966 79.17a.622.622 0 0 0-.733.49l-.196.98a.623.623 0 0 0 1.222.244l.196-.98a.623.623 0 0 0-.489-.734zm-18.64-61.097a.627.627 0 0 0-.776.417l-.287.958a.623.623 0 0 0 1.193.358l.288-.957a.623.623 0 0 0-.418-.776zm36.192 62.163a.622.622 0 0 0 .593-.813l-.306-.952a.622.622 0 1 0-1.185.38l.305.953c.085.264.33.432.593.432zm-6.008-12.03a.617.617 0 0 0-.19-.157c.276-.375.444-.834.444-1.335 0-.845-.47-1.575-1.157-1.966l.039-.159a.623.623 0 1 0-1.211-.29l-.038.155a2.267 2.267 0 0 0-2.172 2.26 2.272 2.272 0 0 0 2.27 2.27c.334 0 .649-.078.935-.208a.62.62 0 0 0 .113.217l.631.776a.622.622 0 0 0 .877.09.624.624 0 0 0 .09-.877l-.63-.775zm2.843 23.336-.99.144a.622.622 0 1 0 .18 1.232l.99-.144a.622.622 0 1 0-.18-1.232zm-3.958.574-.99.144a.622.622 0 1 0 .18 1.233l.99-.144a.622.622 0 1 0-.18-1.233zM35.09 50.5c.329-.1.516-.447.417-.776l-.287-.958a.624.624 0 0 0-1.194.358l.288.958a.624.624 0 0 0 .776.418zm3.895 43.461a2.267 2.267 0 0 0-1.103-1.26c.005-.018.016-.033.02-.05l.196-.982a.623.623 0 0 0-1.222-.244l-.196.981c-.004.018.002.035 0 .053a2.265 2.265 0 0 0-2.096 2.252 2.272 2.272 0 0 0 2.269 2.27 2.267 2.267 0 0 0 2.259-2.162.619.619 0 0 0-.127-.858zM31.413 9.823a.622.622 0 1 0-1.078-.623l-.5.866a.622.622 0 1 0 1.078.623l.5-.866zm9.828 66.158a.623.623 0 0 0-1.222-.244l-.196.98a.623.623 0 0 0 1.221.245l.197-.981zm-2.06 7.111a.621.621 0 0 0-.733.49l-.197.98a.623.623 0 0 0 1.222.244l.196-.98a.623.623 0 0 0-.488-.734zm-8.037-77.18c.114.396.327.749.62 1.024a.612.612 0 0 0 .917.52c.203.06.413.102.634.102 1.252 0 2.27-1.018 2.27-2.27s-1.018-2.269-2.27-2.269c-1.034 0-1.899.7-2.171 1.647h-.95a.623.623 0 0 0 0 1.245h.95zm-8.115 23.401a.623.623 0 0 0-1.083.616l.494.87a.622.622 0 1 0 1.083-.616l-.494-.87zM43.572 70.91a2.268 2.268 0 0 0-2.113-1.46c-.123 0-.24.018-.358.036a.616.616 0 0 0 .156-.606l-.287-.958a.624.624 0 0 0-1.194.359l.288.958c.066.22.246.371.455.42a2.268 2.268 0 0 0-1.33 2.06 2.272 2.272 0 0 0 2.27 2.27c1.154 0 2.1-.87 2.24-1.987a.618.618 0 0 0 .28-.59.617.617 0 0 0-.407-.502zM22.606 15.975l.288-.957a.623.623 0 0 0-1.194-.359l-.287.958a.623.623 0 0 0 1.193.358zm6.242 22.678a2.25 2.25 0 0 0 .355-1.207c0-1.19-.925-2.16-2.092-2.251a.617.617 0 0 0-.555-.216.613.613 0 0 0-.463.363 2.27 2.27 0 0 0-1.429 2.104 2.272 2.272 0 0 0 2.27 2.27c.354 0 .685-.089.984-.234l.636.71a.62.62 0 0 0 .88.05.623.623 0 0 0 .048-.88l-.634-.709zm-3.583-4.143c.3-.17.404-.55.234-.85l-.494-.868a.624.624 0 0 0-1.083.615l.494.869a.622.622 0 0 0 .85.234zm21.171 58.18-.99.145a.622.622 0 1 0 .18 1.232l.99-.144a.622.622 0 1 0-.18-1.232zm-3.958.576-.99.143a.623.623 0 1 0 .179 1.233l.99-.144a.623.623 0 1 0-.179-1.232zm-6.883-41.087a.624.624 0 0 0-.418.776l.288.958a.624.624 0 0 0 1.193-.358l-.287-.958a.625.625 0 0 0-.776-.418zM59.372 87.42a.623.623 0 0 0 1.186-.38l-.307-.953a.621.621 0 1 0-1.185.381l.306.952zm-21.71.083-.196.98a.623.623 0 0 0 1.221.245l.197-.98a.623.623 0 0 0-1.222-.245zm1.252-22.096a.624.624 0 0 0 1.193-.359l-.287-.958a.624.624 0 0 0-1.194.359l.288.958zm20.42 17.824-.306-.952a.622.622 0 1 0-1.185.38l.306.953a.623.623 0 0 0 1.185-.381zM28.061 14.379a.62.62 0 0 0 .85-.227l.5-.866a.622.622 0 1 0-1.078-.623l-.5.866a.622.622 0 0 0 .228.85zm8.553 43.365a.623.623 0 0 0 1.194-.358l-.287-.957a.624.624 0 0 0-1.194.357l.287.958zm-11.63-32.399a.625.625 0 0 0 .616-.717l-.151-.988a.623.623 0 0 0-1.231.188l.15.988a.623.623 0 0 0 .615.53zm-1.228-13.201.288-.957a.623.623 0 0 0-1.193-.359l-.288.958a.623.623 0 0 0 1.193.358zm1.833 17.155a.625.625 0 0 0 .617-.717l-.151-.989a.623.623 0 0 0-1.231.188l.15.99a.623.623 0 0 0 .615.528zm.606 3.954a.625.625 0 0 0 .617-.717l-.152-.989a.623.623 0 0 0-1.231.188l.151.99a.623.623 0 0 0 .615.528zm1.215-16.504a.622.622 0 1 0-1.078-.623l-.5.866a.622.622 0 1 0 1.077.623l.5-.866zm11.13 45.244c.33-.1.516-.447.418-.776l-.288-.957a.623.623 0 0 0-1.193.357l.287.958a.624.624 0 0 0 .776.418zm39.022-27.277a.623.623 0 0 0 1.168-.433l-.347-.937a.624.624 0 0 0-1.168.432l.347.938zm-.222-4.183-.347-.938a.622.622 0 1 0-1.168.432l.347.938a.623.623 0 1 0 1.168-.432zM52.056 56.06a.622.622 0 0 0-.75.46l-.235.972a.623.623 0 1 0 1.211.291l.234-.972a.623.623 0 0 0-.46-.75zm1.161-2.166.234-.972a.623.623 0 1 0-1.21-.291l-.235.972a.623.623 0 1 0 1.211.291zm15.31-8.093-.998.067a.624.624 0 0 0 .04 1.244l.043-.001.997-.067a.623.623 0 0 0-.083-1.243zm4.654.312a.619.619 0 0 0-.663-.58l-.998.067a.623.623 0 0 0 .04 1.244h.043l.998-.068a.623.623 0 0 0 .58-.663zm-8.646-.045-.997.067a.624.624 0 0 0 .04 1.244l.043-.001.997-.067a.623.623 0 0 0-.083-1.243zm-13.94 16.064a.623.623 0 0 0 .751-.46l.235-.972a.623.623 0 1 0-1.211-.29l-.234.971c-.08.335.125.67.46.751zm24.957-15.555.042-.001.997-.067a.624.624 0 0 0-.083-1.243l-.997.067a.624.624 0 0 0 .04 1.244zm-14.344.339a.622.622 0 0 0-.664-.58l-.998.066a.623.623 0 0 0 .041 1.244h.042l.998-.067a.623.623 0 0 0 .58-.663zM53.4 50.465a.623.623 0 0 0 .751-.46l.086-.356a2.268 2.268 0 0 0 2.12-1.784l.278-.019a.624.624 0 0 0-.083-1.243l-.285.02a2.266 2.266 0 0 0-2.127-1.503 2.272 2.272 0 0 0-2.27 2.27c0 .844.47 1.574 1.157 1.965l-.087.359c-.08.334.126.67.46.75zm-.729-5.99-.612-.79a.621.621 0 1 0-.985.763l.613.79a.62.62 0 0 0 .874.111.622.622 0 0 0 .11-.873zm-13.07-3.752a.623.623 0 0 0 .856.205l.852-.524a.623.623 0 0 0-.652-1.061l-.852.523a.623.623 0 0 0-.205.857zm-2.552 2.298.852-.523a.623.623 0 0 0-.652-1.061l-.853.523a.623.623 0 0 0 .653 1.061zm13.173-1.708-.612-.79a.623.623 0 0 0-.985.763l.612.79a.624.624 0 0 0 .985-.763z"/></svg>