<svg xmlns="http://www.w3.org/2000/svg" viewBox="0 0 100 125" style="enable-background:new 0 0 100 100" xml:space="preserve"><path fill="white" d="M26.718 11.487a2.272 2.272 0 0 1-2.27-2.269c0-1.251 1.019-2.27 2.27-2.27s2.27 1.019 2.27 2.27a2.272 2.272 0 0 1-2.27 2.27zm18.475 31.398a2.272 2.272 0 0 0-2.27-2.27c-.101 0-.198.017-.296.03a.6.6 0 0 0-.317-.006.606.606 0 0 0-.256.15 2.272 2.272 0 0 0-1.4 2.096c0 1.042.711 1.914 1.67 2.179-.007.038-.023.074-.023.115v1c0 .126.046.236.11.333a2.27 2.27 0 0 0-1.757 2.206c0 1.251 1.019 2.27 2.27 2.27s2.27-1.019 2.27-2.27a2.27 2.27 0 0 0-1.757-2.206.605.605 0 0 0 .11-.333v-1c0-.04-.016-.077-.024-.115a2.266 2.266 0 0 0 1.67-2.18zm-10.27 7.102c-.465 0-.898.142-1.259.384a.614.614 0 0 0-.016-.736l-.62-.785a.622.622 0 1 0-.977.772l.62.786a.62.62 0 0 0 .49.236.62.62 0 0 0 .228-.048 2.256 2.256 0 0 0-.735 1.66c0 1.252 1.019 2.27 2.27 2.27s2.27-1.018 2.27-2.27-1.02-2.269-2.27-2.269zm15.897-.602c0-1.252-1.017-2.27-2.268-2.27s-2.27 1.018-2.27 2.27c0 1.157.874 2.104 1.995 2.241a.618.618 0 0 0-.348.552v1a.623.623 0 0 0 1.246 0v-1a.618.618 0 0 0-.348-.552 2.265 2.265 0 0 0 1.993-2.241zm7.462 16.794c-1.25 0-2.27 1.018-2.27 2.27s1.02 2.27 2.27 2.27 2.27-1.019 2.27-2.27-1.019-2.27-2.27-2.27zM80.81 83.767c.014-.052.032-.103.032-.16v-1a.623.623 0 0 0-1.246 0v1c0 .057.018.108.032.16a2.267 2.267 0 0 0-1.679 2.182 2.272 2.272 0 0 0 2.27 2.27c.745 0 1.401-.366 1.815-.922.021-.023.05-.034.068-.06.022-.033.029-.07.044-.104.213-.346.342-.75.342-1.184 0-1.046-.715-1.92-1.678-2.182zM12.718 21.846c-1.251 0-2.27 1.018-2.27 2.27s1.019 2.269 2.27 2.269 2.27-1.018 2.27-2.27-1.02-2.27-2.27-2.27zm28.936 8.103c0-1.252-1.018-2.27-2.27-2.27s-2.269 1.018-2.269 2.27 1.019 2.27 2.27 2.27 2.27-1.019 2.27-2.27zm38.564 46.666c-1.251 0-2.27 1.018-2.27 2.27s1.019 2.27 2.27 2.27 2.27-1.019 2.27-2.27-1.02-2.27-2.27-2.27zm7.064 11.898a2.272 2.272 0 0 0-2.27 2.269c0 1.251 1.02 2.27 2.27 2.27s2.27-1.019 2.27-2.27a2.272 2.272 0 0 0-2.27-2.27zm-9.756-11.599-.903-.43a.623.623 0 1 0-.535 1.125l.903.43a.625.625 0 0 0 .83-.295.623.623 0 0 0-.295-.83zM85.24 88.63l-.825-.565a.622.622 0 1 0-.703 1.028l.825.565a.622.622 0 1 0 .703-1.027zM70.302 73.478l-.904-.43a.623.623 0 0 0-.535 1.125l.904.43a.625.625 0 0 0 .83-.295.623.623 0 0 0-.295-.83zm3.612 1.718-.903-.43a.624.624 0 0 0-.535 1.125l.903.43a.625.625 0 0 0 .83-.295.623.623 0 0 0-.295-.83zM37.136 27.462a.622.622 0 1 0 1.062-.649l-.521-.853a.623.623 0 1 0-1.063.65l.522.852zm4.092 6.86-.265-.964a.623.623 0 0 0-1.201.33l.264.965a.624.624 0 0 0 1.202-.33zM29.856 13.16l-.521-.853a.622.622 0 1 0-1.063.65l.522.853a.623.623 0 1 0 1.062-.65zm5.195 10.89a.623.623 0 1 0 1.062-.65l-.521-.854a.622.622 0 1 0-1.063.65l.522.853zm-2.086-3.414a.622.622 0 1 0 1.062-.65l-.521-.853a.622.622 0 1 0-1.063.65l.522.853zm-1.024-4.063-.521-.853a.622.622 0 1 0-1.063.65l.522.853a.622.622 0 1 0 1.062-.65zm9.14 21.937a.623.623 0 1 0 1.201-.328l-.263-.965a.622.622 0 1 0-1.201.328l.263.965zm15.626 28.177a.622.622 0 0 0 .049-.88l-.666-.745a.623.623 0 0 0-.928.83l.666.746a.62.62 0 0 0 .879.049zm-3.282-4.607a.624.624 0 0 0-.93.83l.666.746a.622.622 0 0 0 .88.05.623.623 0 0 0 .05-.88l-.666-.746zm9.653 7.96-.903-.43a.623.623 0 0 0-.535 1.125l.903.43a.625.625 0 0 0 .83-.294.623.623 0 0 0-.295-.83zm-12.32-10.942a.612.612 0 0 0-.383-.195 2.25 2.25 0 0 0 .445-1.338 2.271 2.271 0 0 0-2.268-2.27c-.846 0-1.577.472-1.967 1.16l-.436-.105a.623.623 0 1 0-.291 1.21l.434.105a2.267 2.267 0 0 0 2.26 2.17c.412 0 .793-.12 1.126-.312a.616.616 0 0 0 .151.405l.666.746a.622.622 0 0 0 .88.05.623.623 0 0 0 .05-.88l-.666-.746zm15.931 12.66-.902-.429a.623.623 0 0 0-.535 1.125l.902.43a.621.621 0 0 0 .83-.295.623.623 0 0 0-.295-.83zM25.595 39.43a.621.621 0 1 0-.977.772l.62.785a.62.62 0 0 0 .874.103.622.622 0 0 0 .103-.875l-.62-.785zm-7.432-9.42a.623.623 0 0 0-.978.771l.619.785a.622.622 0 0 0 .978-.771l-.619-.785zm4.955 6.28a.623.623 0 1 0-.978.772l.619.785a.623.623 0 1 0 .978-.772l-.619-.785zm-2.477-3.14a.624.624 0 0 0-.979.771l.62.786a.622.622 0 0 0 .978-.772l-.62-.785zm-4.957-6.28a.622.622 0 1 0-.977.772l.62.785a.62.62 0 0 0 .874.102.622.622 0 0 0 .103-.875l-.62-.785zm14.868 18.84a.623.623 0 1 0-.979.772l.62.785a.623.623 0 1 0 .978-.771l-.62-.786zm-2.478-3.14a.624.624 0 0 0-.978.772l.619.785a.622.622 0 0 0 .978-.772l-.619-.785zm15.344 13.168a2.27 2.27 0 0 0-2.264-2.212 2.26 2.26 0 0 0-1.587.652l-.725-.412a.624.624 0 0 0-.615 1.083l.728.414c-.042.171-.07.348-.07.533a2.272 2.272 0 0 0 2.27 2.269c.859 0 1.6-.486 1.985-1.193a.618.618 0 0 0 .552-.47.617.617 0 0 0-.274-.664z"/></svg>