<svg xmlns="http://www.w3.org/2000/svg" viewBox="0 0 100 125" style="enable-background:new 0 0 100 100" xml:space="preserve"><path fill="white" d="M36.06 11.342a1.903 1.903 0 1 1 0-3.807 1.903 1.903 0 0 1 0 3.807zM48.84 47.344l-.283.96a.622.622 0 1 0 1.194.35l.283-.959a.622.622 0 1 0-1.194-.351zm1.269-2.105a.623.623 0 0 0 .773-.42l.283-.96a.622.622 0 1 0-1.194-.352l-.283.959a.622.622 0 0 0 .42.773zM46.11 85.28a.623.623 0 0 0-1.123.54l.433.901a.624.624 0 0 0 1.123-.539l-.433-.901zm-5.283-64.562a.623.623 0 1 0 1.12-.543l-.435-.9a.622.622 0 1 0-1.12.543l.435.9zM44.582 7.27l-.984.177a.623.623 0 0 0 .22 1.226l.985-.177a.623.623 0 0 0-.221-1.226zm-2.08 63.542a.62.62 0 0 0 .279-.066l.893-.45a.618.618 0 0 0 .338-.557c.346.367.835.599 1.38.599a1.903 1.903 0 0 0 1.903-1.903c0-.702-.385-1.309-.95-1.639a.614.614 0 0 0-.433-.276.618.618 0 0 0-.28.036c-.08-.01-.158-.025-.24-.025a1.903 1.903 0 0 0-1.754 2.645.614.614 0 0 0-.522.008l-.894.448a.623.623 0 0 0 .28 1.18zm15.894-51.798a.623.623 0 0 0-.344.81l.376.927a.623.623 0 0 0 1.155-.467l-.376-.927a.622.622 0 0 0-.811-.343zM41.369 8.48a.621.621 0 0 0-.723-.502l-.985.177a.623.623 0 0 0 .22 1.226l.985-.177a.623.623 0 0 0 .503-.724zm19.69 18.757.377.926a.624.624 0 0 0 1.154-.469l-.376-.926a.622.622 0 1 0-1.154.469zm-2.36 8.169-.833.552a.622.622 0 1 0 .687 1.038l.834-.552a.622.622 0 1 0-.688-1.038zM56.575 12.87l-.376-.927a.623.623 0 0 0-1.154.468l.375.926a.623.623 0 1 0 1.155-.467zM44.167 26.186a.622.622 0 0 0-.29.832l.436.9a.622.622 0 1 0 1.121-.542l-.435-.9a.621.621 0 0 0-.832-.29zm16.92-2.197-.377-.927a.622.622 0 1 0-1.154.47l.376.926a.624.624 0 0 0 1.154-.47zm-3.008-7.413-.376-.927a.622.622 0 1 0-1.155.468l.376.927a.623.623 0 0 0 1.155-.468zM47.984 90.618a.623.623 0 0 0 .292-.831l-.433-.902a.623.623 0 0 0-1.123.54l.433.9a.624.624 0 0 0 .831.293zm7.38-53-.832.551a.623.623 0 0 0 .688 1.039l.833-.553a.623.623 0 0 0-.688-1.038zm-.636-27.644a.623.623 0 0 0 .343-.81l-.376-.928a.62.62 0 0 0-.35-.343c.49-.345.811-.911.811-1.555a1.898 1.898 0 0 0-3.779-.275.614.614 0 0 0 .203 1.2l.018-.002c.325.582.94.98 1.655.98.104 0 .204-.014.303-.03a.616.616 0 0 0-.015.493l.376.927a.623.623 0 0 0 .811.343zm-15.643 7.143a.622.622 0 1 0 1.121-.542l-.435-.9a.622.622 0 1 0-1.122.541l.436.9zm9.274 18.354a.623.623 0 0 0 .56-.895l-.435-.9a.622.622 0 1 0-1.121.543l.435.9c.108.222.33.352.561.352zM37.903 13.868a.622.622 0 0 0 .56-.894l-.435-.9a.622.622 0 1 0-1.121.542l.435.9c.108.223.33.352.561.352zm12.2 25.203a.622.622 0 0 0 .56-.894l-.436-.9a.622.622 0 1 0-1.122.542l.436.9c.107.223.33.352.561.352zM47.031 7.46a.623.623 0 0 0 .723.503l.984-.177a.623.623 0 0 0-.22-1.226l-.985.177a.623.623 0 0 0-.502.723zm-6.115 67.003a.623.623 0 0 0-1.123.54l.433.9a.624.624 0 0 0 1.123-.538l-.433-.902zm1.731 3.606a.623.623 0 0 0-1.123.54l.433.9a.624.624 0 0 0 1.123-.538l-.433-.902zm5.216-21.76.066-.504a1.904 1.904 0 0 0 1.517-1.863c0-.639-.317-1.2-.8-1.545l.255-.863a.622.622 0 1 0-1.194-.352l-.255.865a1.899 1.899 0 0 0-1.813 1.895c0 .744.432 1.382 1.055 1.695l-.066.511a.623.623 0 0 0 1.235.16zm-1.727 8.47a.623.623 0 0 0 .698-.538l.129-.99a.623.623 0 0 0-1.235-.16l-.13.991a.623.623 0 0 0 .538.698zm-4.002-41.36.435.9a.623.623 0 1 0 1.121-.543l-.435-.9a.622.622 0 1 0-1.121.543zm4.482 8.452a.623.623 0 0 0 .56-.895l-.436-.9a.623.623 0 0 0-1.12.544l.435.9c.107.222.33.351.56.351zM44.38 81.674a.623.623 0 0 0-1.123.54l.433.9a.624.624 0 0 0 1.123-.539l-.433-.901zm3.099-22.391a.623.623 0 0 0-1.236-.16l-.129.991a.623.623 0 0 0 1.236.16l.129-.991zm3.87-20.16a1.903 1.903 0 1 0 0 3.807 1.903 1.903 0 0 0 0-3.806zm12.59-8.347c-.032 0-.063.008-.096.01l-.125-.31a.623.623 0 1 0-1.155.468l.126.31a1.89 1.89 0 0 0-.653 1.425c0 .169.03.33.071.486-.025.012-.051.015-.075.03l-.833.554a.623.623 0 0 0 .688 1.038l.834-.553c.023-.016.036-.04.057-.057.322.25.722.405 1.162.405a1.903 1.903 0 1 0 0-3.806zM40.918 71.94a1.903 1.903 0 1 0-3.806 0 1.903 1.903 0 0 0 3.806 0zm8.588 19.819a1.903 1.903 0 1 0 0 3.806 1.903 1.903 0 0 0 0-3.806z"/></svg>